HIERARCHY
ROOT hip
{
	OFFSET 0.000000 0.000000 0.000000
	CHANNELS 6 Xposition Yposition Zposition Xrotation Zrotation Yrotation 
	JOINT abdomen
	{
		OFFSET 0.000000 3.422050 0.000000
		CHANNELS 3 Xrotation Zrotation Yrotation 
		JOINT chest
		{
			OFFSET 0.000000 8.486693 -0.6844110
			CHANNELS 3 Xrotation Zrotation Yrotation 
			JOINT neck
			{
				OFFSET 0.000000 10.26616 -0.2737640
				CHANNELS 3 Xrotation Zrotation Yrotation 
				JOINT head
				{
					OFFSET 0.000000 3.148285 0.000000
					CHANNELS 3 Xrotation Zrotation Yrotation 
					End Site
					{
						OFFSET 0.000000 3.148289 0.000000
					}
				}
			}
			JOINT lCollar
			{
				OFFSET 3.422053 6.707223 -0.8212930
				CHANNELS 3 Yrotation Zrotation Xrotation 
				JOINT lShldr
				{
					OFFSET 3.285171 0.000000 0.000000
					CHANNELS 3 Zrotation Yrotation Xrotation 
					JOINT lForeArm
					{
						OFFSET 10.12928 0.000000 0.000000
						CHANNELS 3 Yrotation Zrotation Xrotation 
						JOINT lHand
						{
							OFFSET 8.486692 0.000000 0.000000
							CHANNELS 3 Zrotation Yrotation Xrotation 
							End Site
							{
								OFFSET 4.106464 0.000000 0.000000
							}
						}
					}
				}
			}
			JOINT rCollar
			{
				OFFSET -3.558935 6.707223 -0.8212930
				CHANNELS 3 Yrotation Zrotation Xrotation 
				JOINT rShldr
				{
					OFFSET -3.148289 0.000000 0.000000
					CHANNELS 3 Zrotation Yrotation Xrotation 
					JOINT rForeArm
					{
						OFFSET -10.26616 0.000000 0.000000
						CHANNELS 3 Yrotation Zrotation Xrotation 
						JOINT rHand
						{
							OFFSET -8.349810 0.000000 0.000000
							CHANNELS 3 Zrotation Yrotation Xrotation 
							End Site
							{
								OFFSET -4.106464 0.000000 0.000000
							}
						}
					}
				}
			}
		}
	}
	JOINT lThigh
	{
		OFFSET 5.338403 -1.642589 1.368821
		CHANNELS 3 Xrotation Zrotation Yrotation 
		JOINT lShin
		{
			OFFSET -2.053232 -20.12167 0.000000
			CHANNELS 3 Xrotation Zrotation Yrotation 
			JOINT lFoot
			{
				OFFSET 0.000000 -19.30038 -1.231939
				CHANNELS 3 Xrotation Yrotation Zrotation 
				End Site
				{
					OFFSET 0.000000 -2.463878 4.653993
				}
			}
		}
	}
	JOINT rThigh
	{
		OFFSET -5.338403 -1.642589 1.368821
		CHANNELS 3 Xrotation Zrotation Yrotation 
		JOINT rShin
		{
			OFFSET 2.053232 -20.12167 0.000000
			CHANNELS 3 Xrotation Zrotation Yrotation 
			JOINT rFoot
			{
				OFFSET 0.000000 -19.30038 -1.231939
				CHANNELS 3 Xrotation Yrotation Zrotation 
				End Site
				{
					OFFSET 0.000000 -2.463878 4.653993
				}
			}
		}
	}
}
MOTION
Frames:	21
Frame Time:	0.03333333
0.000000 43.52850 0.000000 0.000000 0.000000 0.000000 0.000000 0.000000 0.000000 0.000000 0.000000 0.000000 0.000000 0.000000 0.000000 0.000000 0.000000 0.000000 0.000000 0.000000 0.000000 -72.00000 0.000000 0.000000 0.000000 0.000000 0.000000 0.000000 0.000000 0.000000 0.000000 0.000000 0.000000 72.00000 0.000000 0.000000 0.000000 0.000000 0.000000 0.000000 0.000000 0.000000 0.000000 10.00000 0.000000 0.000000 -5.000000 0.000000 0.000000 0.000000 0.000000 0.000000 -10.00000 0.000000 0.000000 5.000000 0.000000 0.000000 0.000000 0.000000 
0.000000 43.52850 0.000000 1.000000 0.000000 0.000000 1.000000 0.000000 0.000000 1.000000 0.000000 0.000000 1.000000 0.000000 0.000000 1.000000 0.000000 0.000000 0.000000 0.000000 1.000000 -72.00000 0.000000 0.000000 0.000000 0.000000 1.000000 0.000000 0.000000 1.000000 0.000000 0.000000 1.000000 72.00000 0.000000 0.000000 0.000000 0.000000 1.000000 0.000000 0.000000 1.000000 0.000000 10.00000 0.000000 0.000000 -5.000000 0.000000 1.000000 0.000000 0.000000 0.000000 -10.00000 0.000000 0.000000 5.000000 0.000000 1.000000 0.000000 0.000000 
0.000000 43.52850 0.2142857 0.9642857 0.000000 0.000000 0.9642857 0.000000 0.5357143 0.9642857 0.000000 0.5357143 0.9642857 0.000000 0.000000 0.9642857 -0.4642857 -1.142857 0.000000 0.000000 0.9642857 -72.00000 0.8214286 0.000000 -1.500000 0.000000 0.9642857 0.000000 0.000000 0.9642857 0.5357143 0.000000 0.9642857 72.00000 0.000000 0.000000 0.000000 0.000000 0.9642857 0.000000 0.000000 0.9642857 0.000000 10.00000 0.000000 0.000000 -5.000000 0.000000 0.9642857 0.000000 0.000000 0.000000 -10.00000 0.000000 0.5714286 5.000000 0.000000 0.4285714 0.000000 0.000000 
0.000000 43.52850 0.4285714 0.9285714 0.000000 0.000000 0.9285714 0.000000 1.071429 0.9285714 0.000000 1.071429 0.9285714 0.000000 0.000000 0.9285714 -0.9285714 -2.285714 0.000000 0.000000 0.9285714 -72.00000 1.642857 0.000000 -3.000000 0.000000 0.9285714 0.000000 0.000000 0.9285714 1.071429 0.000000 0.9285714 72.00000 0.000000 0.000000 0.000000 0.000000 0.9285714 0.000000 0.000000 0.9285714 0.000000 10.00000 0.000000 0.000000 -5.000000 0.000000 0.9285714 0.000000 0.000000 0.000000 -10.00000 0.000000 1.142857 5.000000 0.000000 -0.1428571 0.000000 0.000000 
0.000000 43.52850 0.6428571 0.8928571 0.000000 0.000000 0.8928571 0.000000 1.607143 0.8928571 0.000000 1.607143 0.8928571 0.000000 0.000000 0.8928571 -1.392857 -3.428571 0.000000 0.000000 0.8928571 -72.00000 2.464286 0.000000 -4.500000 0.000000 0.8928571 0.000000 0.000000 0.8928571 1.607143 0.000000 0.8928571 72.00000 0.000000 0.000000 0.000000 0.000000 0.8928571 0.000000 0.000000 0.8928571 0.000000 10.00000 0.000000 0.000000 -5.000000 0.000000 0.8928571 0.000000 0.000000 0.000000 -10.00000 0.000000 1.714286 5.000000 0.000000 -0.7142857 0.000000 0.000000 
0.000000 43.52850 0.8571429 0.8571429 0.000000 0.000000 0.8571429 0.000000 2.142857 0.8571429 0.000000 2.142857 0.8571429 0.000000 0.000000 0.8571429 -1.857143 -4.571429 0.000000 0.000000 0.8571429 -72.00000 3.285714 0.000000 -6.000000 0.000000 0.8571429 0.000000 0.000000 0.8571429 2.142857 0.000000 0.8571429 72.00000 0.000000 0.000000 0.000000 0.000000 0.8571429 0.000000 0.000000 0.8571429 0.000000 10.00000 0.000000 0.000000 -5.000000 0.000000 0.8571429 0.000000 0.000000 0.000000 -10.00000 0.000000 2.285714 5.000000 0.000000 -1.285714 0.000000 0.000000 
0.000000 43.52850 1.071429 0.8214286 0.000000 0.000000 0.8214286 0.000000 2.678571 0.8214286 0.000000 2.678571 0.8214286 0.000000 0.000000 0.8214286 -2.321429 -5.714286 0.000000 0.000000 0.8214286 -72.00000 4.107143 0.000000 -7.500000 0.000000 0.8214286 0.000000 0.000000 0.8214286 2.678571 0.000000 0.8214286 72.00000 0.000000 0.000000 0.000000 0.000000 0.8214286 0.000000 0.000000 0.8214286 0.000000 10.00000 0.000000 0.000000 -5.000000 0.000000 0.8214286 0.000000 0.000000 0.000000 -10.00000 0.000000 2.857143 5.000000 0.000000 -1.857143 0.000000 0.000000 
0.000000 43.52850 1.285714 0.7857143 0.000000 0.000000 0.7857143 0.000000 3.214286 0.7857143 0.000000 3.214286 0.7857143 0.000000 0.000000 0.7857143 -2.785714 -6.857143 0.000000 0.000000 0.7857143 -72.00000 4.928571 0.000000 -9.000000 0.000000 0.7857143 0.000000 0.000000 0.7857143 3.214286 0.000000 0.7857143 72.00000 0.000000 0.000000 0.000000 0.000000 0.7857143 0.000000 0.000000 0.7857143 0.000000 10.00000 0.000000 0.000000 -5.000000 0.000000 0.7857143 0.000000 0.000000 0.000000 -10.00000 0.000000 3.428571 5.000000 0.000000 -2.428571 0.000000 0.000000 
0.000000 43.52850 1.500000 0.7500000 0.000000 0.000000 0.7500000 0.000000 3.750000 0.7500000 0.000000 3.750000 0.7500000 0.000000 0.000000 0.7500000 -3.250000 -8.000000 0.000000 0.000000 0.7500000 -72.00000 5.750000 0.000000 -10.50000 0.000000 0.7500000 0.000000 0.000000 0.7500000 3.750000 0.000000 0.7500000 72.00000 0.000000 0.000000 0.000000 0.000000 0.7500000 0.000000 0.000000 0.7500000 0.000000 10.00000 0.000000 0.000000 -5.000000 0.000000 0.7500000 0.000000 0.000000 0.000000 -10.00000 0.000000 4.000000 5.000000 0.000000 -3.000000 0.000000 0.000000 
0.000000 43.52850 1.714286 0.7142857 0.000000 0.000000 0.7142857 0.000000 4.285714 0.7142857 0.000000 4.285714 0.7142857 0.000000 0.000000 0.7142857 -3.714286 -9.142858 0.000000 0.000000 0.7142857 -72.00000 6.571429 0.000000 -12.00000 0.000000 0.7142857 0.000000 0.000000 0.7142857 4.285714 0.000000 0.7142857 72.00000 0.000000 0.000000 0.000000 0.000000 0.7142857 0.000000 0.000000 0.7142857 0.000000 10.00000 0.000000 0.000000 -5.000000 0.000000 0.7142857 0.000000 0.000000 0.000000 -10.00000 0.000000 4.571429 5.000000 0.000000 -3.571429 0.000000 0.000000 
0.000000 43.52850 1.928571 0.6785714 0.000000 0.000000 0.6785714 0.000000 4.821429 0.6785714 0.000000 4.821429 0.6785714 0.000000 0.000000 0.6785714 -4.178571 -10.28571 0.000000 0.000000 0.6785714 -72.00000 7.392857 0.000000 -13.50000 0.000000 0.6785714 0.000000 0.000000 0.6785714 4.821429 0.000000 0.6785714 72.00000 0.000000 0.000000 0.000000 0.000000 0.6785714 0.000000 0.000000 0.6785714 0.000000 10.00000 0.000000 0.000000 -5.000000 0.000000 0.6785714 0.000000 0.000000 0.000000 -10.00000 0.000000 5.142857 5.000000 0.000000 -4.142857 0.000000 0.000000 
0.000000 43.52850 2.142857 0.6428571 0.000000 0.000000 0.6428571 0.000000 5.357143 0.6428571 0.000000 5.357143 0.6428571 0.000000 0.000000 0.6428571 -4.642857 -11.42857 0.000000 0.000000 0.6428571 -72.00000 8.214286 0.000000 -15.00000 0.000000 0.6428571 0.000000 0.000000 0.6428571 5.357143 0.000000 0.6428571 72.00000 0.000000 0.000000 0.000000 0.000000 0.6428571 0.000000 0.000000 0.6428571 0.000000 10.00000 0.000000 0.000000 -5.000000 0.000000 0.6428571 0.000000 0.000000 0.000000 -10.00000 0.000000 5.714286 5.000000 0.000000 -4.714286 0.000000 0.000000 
0.000000 43.52850 2.357143 0.6071429 0.000000 0.000000 0.6071429 0.000000 5.892857 0.6071429 0.000000 5.892857 0.6071429 0.000000 0.000000 0.6071429 -5.107143 -12.57143 0.000000 0.000000 0.6071429 -72.00000 9.035714 0.000000 -16.50000 0.000000 0.6071429 0.000000 0.000000 0.6071429 5.892857 0.000000 0.6071429 72.00000 0.000000 0.000000 0.000000 0.000000 0.6071429 0.000000 0.000000 0.6071429 0.000000 10.00000 0.000000 0.000000 -5.000000 0.000000 0.6071429 0.000000 0.000000 0.000000 -10.00000 0.000000 6.285714 5.000000 0.000000 -5.285714 0.000000 0.000000 
0.000000 43.52850 2.571429 0.5714286 0.000000 0.000000 0.5714286 0.000000 6.428571 0.5714286 0.000000 6.428571 0.5714286 0.000000 0.000000 0.5714286 -5.571429 -13.71429 0.000000 0.000000 0.5714286 -72.00000 9.857142 0.000000 -18.00000 0.000000 0.5714286 0.000000 0.000000 0.5714286 6.428571 0.000000 0.5714286 72.00000 0.000000 0.000000 0.000000 0.000000 0.5714286 0.000000 0.000000 0.5714286 0.000000 10.00000 0.000000 0.000000 -5.000000 0.000000 0.5714286 0.000000 0.000000 0.000000 -10.00000 0.000000 6.857143 5.000000 0.000000 -5.857143 0.000000 0.000000 
0.000000 43.52850 2.785714 0.5357143 0.000000 0.000000 0.5357143 0.000000 6.964286 0.5357143 0.000000 6.964286 0.5357143 0.000000 0.000000 0.5357143 -6.035714 -14.85714 0.000000 0.000000 0.5357143 -72.00000 10.67857 0.000000 -19.50000 0.000000 0.5357143 0.000000 0.000000 0.5357143 6.964286 0.000000 0.5357143 72.00000 0.000000 0.000000 0.000000 0.000000 0.5357143 0.000000 0.000000 0.5357143 0.000000 10.00000 0.000000 0.000000 -5.000000 0.000000 0.5357143 0.000000 0.000000 0.000000 -10.00000 0.000000 7.428571 5.000000 0.000000 -6.428571 0.000000 0.000000 
0.000000 43.52850 3.000000 0.5000000 0.000000 0.000000 0.5000000 0.000000 7.500000 0.5000000 0.000000 7.500000 0.5000000 0.000000 0.000000 0.5000000 -6.500000 -16.00000 0.000000 0.000000 0.5000000 -72.00000 11.50000 0.000000 -21.00000 0.000000 0.5000000 0.000000 0.000000 0.5000000 7.500000 0.000000 0.5000000 72.00000 0.000000 0.000000 0.000000 0.000000 0.5000000 0.000000 0.000000 0.5000000 0.000000 10.00000 0.000000 0.000000 -5.000000 0.000000 0.5000000 0.000000 0.000000 0.000000 -10.00000 0.000000 8.000000 5.000000 0.000000 -7.000000 0.000000 0.000000 
0.000000 43.52850 3.214286 0.4642857 0.000000 0.000000 0.4642857 0.000000 8.035714 0.4642857 0.000000 8.035714 0.4642857 0.000000 0.000000 0.4642857 -6.964286 -17.14286 0.000000 0.000000 0.4642857 -72.00000 12.32143 0.000000 -22.50000 0.000000 0.4642857 0.000000 0.000000 0.4642857 8.035714 0.000000 0.4642857 72.00000 0.000000 0.000000 0.000000 0.000000 0.4642857 0.000000 0.000000 0.4642857 0.000000 10.00000 0.000000 0.000000 -5.000000 0.000000 0.4642857 0.000000 0.000000 0.000000 -10.00000 0.000000 8.571428 5.000000 0.000000 -7.571429 0.000000 0.000000 
0.000000 43.52850 3.428571 0.4285714 0.000000 0.000000 0.4285714 0.000000 8.571428 0.4285714 0.000000 8.571428 0.4285714 0.000000 0.000000 0.4285714 -7.428571 -18.28572 0.000000 0.000000 0.4285714 -72.00000 13.14286 0.000000 -24.00000 0.000000 0.4285714 0.000000 0.000000 0.4285714 8.571428 0.000000 0.4285714 72.00000 0.000000 0.000000 0.000000 0.000000 0.4285714 0.000000 0.000000 0.4285714 0.000000 10.00000 0.000000 0.000000 -5.000000 0.000000 0.4285714 0.000000 0.000000 0.000000 -10.00000 0.000000 9.142858 5.000000 0.000000 -8.142858 0.000000 0.000000 
0.000000 43.52850 3.642857 0.3928571 0.000000 0.000000 0.3928571 0.000000 9.107142 0.3928571 0.000000 9.107142 0.3928571 0.000000 0.000000 0.3928571 -7.892857 -19.42857 0.000000 0.000000 0.3928571 -72.00000 13.96429 0.000000 -25.50000 0.000000 0.3928571 0.000000 0.000000 0.3928571 9.107142 0.000000 0.3928571 72.00000 0.000000 0.000000 0.000000 0.000000 0.3928571 0.000000 0.000000 0.3928571 0.000000 10.00000 0.000000 0.000000 -5.000000 0.000000 0.3928571 0.000000 0.000000 0.000000 -10.00000 0.000000 9.714286 5.000000 0.000000 -8.714286 0.000000 0.000000 
0.000000 43.52850 3.857143 0.3571429 0.000000 0.000000 0.3571429 0.000000 9.642858 0.3571429 0.000000 9.642858 0.3571429 0.000000 0.000000 0.3571429 -8.357142 -20.57143 0.000000 0.000000 0.3571429 -72.00000 14.78571 0.000000 -27.00000 0.000000 0.3571429 0.000000 0.000000 0.3571429 9.642858 0.000000 0.3571429 72.00000 0.000000 0.000000 0.000000 0.000000 0.3571429 0.000000 0.000000 0.3571429 0.000000 10.00000 0.000000 0.000000 -5.000000 0.000000 0.3571429 0.000000 0.000000 0.000000 -10.00000 0.000000 10.28571 5.000000 0.000000 -9.285714 0.000000 0.000000 
0.000000 43.52850 4.071429 0.3214286 0.000000 0.000000 0.3214286 0.000000 10.17857 0.3214286 0.000000 10.17857 0.3214286 0.000000 0.000000 0.3214286 -8.821428 -21.71428 0.000000 0.000000 0.3214286 -72.00000 15.60714 0.000000 -28.50000 0.000000 0.3214286 0.000000 0.000000 0.3214286 10.17857 0.000000 0.3214286 72.00000 0.000000 0.000000 0.000000 0.000000 0.3214286 0.000000 0.000000 0.3214286 0.000000 10.00000 0.000000 0.000000 -5.000000 0.000000 0.3214286 0.000000 0.000000 0.000000 -10.00000 0.000000 10.85714 5.000000 0.000000 -9.857142 0.000000 0.000000 
